<svg xmlns="http://www.w3.org/2000/svg" width="42.755" height="32.942" viewBox="0 0 42.755 32.942">
  <defs>
    <style>
      .cls-1 {
        fill: #fff;
      }
    </style>
  </defs>
  <g id="book" transform="translate(-2 -11)">
    <g id="Group_73" data-name="Group 73" transform="translate(2 11)">
      <path id="Path_172" data-name="Path 172" class="cls-1" d="M44.043,14.563a.713.713,0,0,0-.713.713V40.929H39.461a60.616,60.616,0,0,0-13.619,1.551,1.419,1.419,0,0,1-1.5-.593A16.2,16.2,0,0,1,32.792,39.5h8.4a.713.713,0,0,0,.713-.713V33.8a.713.713,0,0,0-1.425,0v4.276H32.792a17.621,17.621,0,0,0-8.7,2.289V20.976a.713.713,0,1,0-1.425,0v19.39a17.618,17.618,0,0,0-8.7-2.288H6.276V12.425H17.249a5.419,5.419,0,0,1,5.416,5.419.713.713,0,0,0,1.425,0,5.419,5.419,0,0,1,5.416-5.419H40.48V30.952a.713.713,0,0,0,1.425,0V11.713A.713.713,0,0,0,41.192,11H29.506a6.85,6.85,0,0,0-6.128,3.8A6.85,6.85,0,0,0,17.249,11H5.563a.713.713,0,0,0-.713.713V38.791a.713.713,0,0,0,.713.713h8.4a16.2,16.2,0,0,1,8.45,2.381,1.425,1.425,0,0,1-1.493.6A60.619,60.619,0,0,0,7.295,40.929H3.425V15.276a.713.713,0,0,0-1.425,0V41.641a.713.713,0,0,0,.713.713H7.295A59.208,59.208,0,0,1,20.59,43.867a2.836,2.836,0,0,0,2.788-.9,2.835,2.835,0,0,0,2.779.9,59.248,59.248,0,0,1,13.3-1.516h4.582a.713.713,0,0,0,.713-.713V15.276A.713.713,0,0,0,44.043,14.563Z" transform="translate(-2 -11)"/>
      <path id="Path_175" data-name="Path 175" class="cls-1" d="M23.629,24.149A6.826,6.826,0,0,0,19.836,23H11.713a.713.713,0,0,0,0,1.425h8.124a5.4,5.4,0,0,1,3.006.91.713.713,0,0,0,.791-1.186Z" transform="translate(-4.587 -16.449)"/>
      <path id="Path_176" data-name="Path 176" class="cls-1" d="M47.064,23H38.941a6.827,6.827,0,0,0-3.8,1.149.713.713,0,1,0,.791,1.186,5.4,5.4,0,0,1,3.006-.91h8.124a.713.713,0,0,0,0-1.425Z" transform="translate(-11.435 -16.449)"/>
      <path id="Path_179" data-name="Path 179" class="cls-1" d="M23.629,34.149A6.826,6.826,0,0,0,19.836,33H11.713a.713.713,0,0,0,0,1.425h8.124a5.4,5.4,0,0,1,3.006.91.713.713,0,0,0,.791-1.186Z" transform="translate(-4.587 -19.323)"/>
      <path id="Path_180" data-name="Path 180" class="cls-1" d="M47.064,33H38.941a6.827,6.827,0,0,0-3.8,1.149.713.713,0,0,0,.791,1.186,5.4,5.4,0,0,1,3.006-.91h8.124a.713.713,0,1,0,0-1.425Z" transform="translate(-11.435 -19.323)"/>
      <path id="Path_183" data-name="Path 183" class="cls-1" d="M19.836,43H11.713a.713.713,0,0,0,0,1.425h8.124a5.4,5.4,0,0,1,3.006.91.713.713,0,0,0,.791-1.186A6.826,6.826,0,0,0,19.836,43Z" transform="translate(-4.587 -22.197)"/>
      <path id="Path_184" data-name="Path 184" class="cls-1" d="M47.064,43H38.941a6.827,6.827,0,0,0-3.8,1.149.713.713,0,0,0,.791,1.186,5.4,5.4,0,0,1,3.006-.91h8.124a.713.713,0,1,0,0-1.425Z" transform="translate(-11.435 -22.197)"/>
    </g>
  </g>
</svg>
