<svg id="comedy" xmlns="http://www.w3.org/2000/svg" width="42.366" height="41.557" viewBox="0 0 42.366 41.557">
  <defs>
    <style>
      .cls-1 {
        fill: #fff;
      }
    </style>
  </defs>
  <path id="Path_163" data-name="Path 163" class="cls-1" d="M54.656,94.3l1.841.729.019.007a4.267,4.267,0,0,0,1.424.289,1.572,1.572,0,0,0,1.4-.663c.8-1.19-.246-3.419-1.06-4.333-1.469-1.655-2.74-1.392-3.366-1.087a3.464,3.464,0,0,0-1.684,3.506A1.856,1.856,0,0,0,54.656,94.3Zm.8-3.941c.687-.334,1.41.248,1.9.8h0c.729.819,1.257,2.37.958,2.813-.1.146-.515.208-1.366-.1l-1.832-.726c-.543-.214-.595-.245-.661-.617a2.265,2.265,0,0,1,1.005-2.17Z" transform="translate(-48.787 -82.059)"/>
  <path id="Path_164" data-name="Path 164" class="cls-1" d="M175.03,150.4l.019.008,1.842.73a2.728,2.728,0,0,0,1.007.254,1.8,1.8,0,0,0,1.094-.408,3.466,3.466,0,0,0,1.175-3.71c-.248-.651-.994-1.713-3.2-1.514-1.219.11-3.511,1.018-3.74,2.434C173.131,148.806,173.364,149.681,175.03,150.4Zm-.576-2.008c.085-.527,1.533-1.3,2.626-1.4h0c.728-.066,1.653.005,1.925.719a2.267,2.267,0,0,1-.753,2.27c-.3.224-.371.208-.906,0l-1.831-.726C174.688,148.9,174.426,148.571,174.454,148.4Z" transform="translate(-158.879 -134.087)"/>
  <path id="Path_165" data-name="Path 165" class="cls-1" d="M45.211,175.876a7.35,7.35,0,0,0,13.627,5.4.816.816,0,0,0-.894-1.28,13.564,13.564,0,0,1-11.208-4.441.815.815,0,0,0-1.525.318Zm1.026.991a15.041,15.041,0,0,0,11.177,4.427,6.109,6.109,0,0,1-11.177-4.427Z" transform="translate(-41.162 -161.052)"/>
  <path id="Path_166" data-name="Path 166" class="cls-1" d="M41.731,25.478a26.464,26.464,0,0,0-1.554-4.814c-.256-.588-.546-1.254-1.181-1.387a1.5,1.5,0,0,0-1.287.5c-3.153,2.922-9.328,4.973-14.766,4.982a26.443,26.443,0,0,0,2.5-4.826,26.43,26.43,0,0,0,1.412-4.859c.118-.628.252-1.341-.2-1.808a1.5,1.5,0,0,0-1.35-.306,20.394,20.394,0,0,1-9.747-1.459.621.621,0,1,0-.44,1.16A21.64,21.64,0,0,0,25.5,14.192a1.626,1.626,0,0,1,.236-.021,5.1,5.1,0,0,1-.095.68,25.189,25.189,0,0,1-1.346,4.63C20.8,28.3,13.175,33.58,7.3,31.253s-7.812-11.4-4.318-20.217A25.224,25.224,0,0,1,5.168,6.743a5.161,5.161,0,0,1,.4-.56,1.63,1.63,0,0,1,.156.176,19.666,19.666,0,0,0,6.608,5.077.621.621,0,0,0,.561-1.107A18.708,18.708,0,0,1,6.7,5.594a1.492,1.492,0,0,0-1.19-.7c-.648.03-1.04.641-1.387,1.182a26.466,26.466,0,0,0-2.3,4.505A23.267,23.267,0,0,0,.445,23.965c.927,4.177,3.2,7.175,6.4,8.442a9.148,9.148,0,0,0,3.388.639,12.432,12.432,0,0,0,6.677-2.16l.02.09a26.488,26.488,0,0,0,1.749,5.25.62.62,0,1,0,1.129-.515,25.26,25.26,0,0,1-1.667-5.006c-.042-.186-.083-.38-.125-.594a21,21,0,0,0,4.064-4.125A27.412,27.412,0,0,0,30.9,24.761a20.156,20.156,0,0,0,7.652-4.069,1.629,1.629,0,0,1,.182-.15,5.147,5.147,0,0,1,.3.617,25.215,25.215,0,0,1,1.481,4.587,22.008,22.008,0,0,1-.7,12.708C38.4,42.038,36,44.371,33.052,45.024c-4.17.923-8.738-1.694-11.919-6.83a.621.621,0,1,0-1.055.653c2.991,4.83,7.18,7.6,11.293,7.6a9.006,9.006,0,0,0,1.949-.213c3.358-.745,6.077-3.346,7.655-7.324a23.252,23.252,0,0,0,.756-13.434Z" transform="translate(0 -4.892)"/>
  <path id="Path_167" data-name="Path 167" class="cls-1" d="M257.225,292.233c-2.146-.547-3.049.384-3.4.988a3.466,3.466,0,0,0,.574,3.85,1.712,1.712,0,0,0,1.278.594,3.625,3.625,0,0,0,.772-.111l1.935-.429.02,0c1.759-.451,2.127-1.279,2.126-1.894,0-1.435-2.121-2.693-3.307-2.993Zm.882,3.682-1.923.427c-.573.125-.633.129-.9-.14a2.266,2.266,0,0,1-.384-2.361,1.2,1.2,0,0,1,1.123-.531,3.7,3.7,0,0,1,.892.126h0c1.063.269,2.37,1.258,2.371,1.792C259.291,295.4,258.981,295.689,258.107,295.915Z" transform="translate(-232.501 -268.307)"/>
  <path id="Path_168" data-name="Path 168" class="cls-1" d="M387.148,264.413a5.169,5.169,0,0,0,.949-.1l.02,0,1.933-.429a1.871,1.871,0,0,0,1.653-1.3,3.462,3.462,0,0,0-1.1-3.729c-.571-.4-1.784-.864-3.5.539h0c-.947.774-2.335,2.81-1.73,4.111A1.748,1.748,0,0,0,387.148,264.413Zm.737-4.064c.567-.464,1.374-.924,2-.484a2.263,2.263,0,0,1,.646,2.3c-.124.357-.18.379-.749.5l-1.925.427c-.888.165-1.289.037-1.363-.122C386.27,262.492,387.036,261.044,387.885,260.349Z" transform="translate(-353.349 -237.464)"/>
  <path id="Path_169" data-name="Path 169" class="cls-1" d="M314.6,369.122a.872.872,0,0,0,.511.758.7.7,0,0,0,.241.043.973.973,0,0,0,.624-.282,10.913,10.913,0,0,1,9.461-2.1.836.836,0,0,0,.888-.153.867.867,0,0,0,.138-.9,6.093,6.093,0,0,0-11.863,2.632Zm4.981-5.609a4.808,4.808,0,0,1,1.041-.114,4.881,4.881,0,0,1,4.388,2.767,12.41,12.41,0,0,0-9.233,2.046,4.875,4.875,0,0,1,3.8-4.7Z" transform="translate(-288.517 -332.598)"/>
</svg>
