<svg id="search" xmlns="http://www.w3.org/2000/svg" width="60" height="60" viewBox="0 0 60 60">
  <defs>
    <style>
      .cls-1 {
        fill: #0f275b;
      }
    </style>
  </defs>
  <g id="Group_27" data-name="Group 27" transform="translate(23.438 14.844)">
    <g id="Group_26" data-name="Group 26">
      <path id="Path_154" data-name="Path 154" class="cls-1" d="M300.781,190a.781.781,0,1,0,.781.781A.782.782,0,0,0,300.781,190Z" transform="translate(-300 -190)"/>
    </g>
  </g>
  <g id="Group_29" data-name="Group 29">
    <g id="Group_28" data-name="Group 28">
      <path id="Path_155" data-name="Path 155" class="cls-1" d="M39.084,34.666,28.656,24.237a15.485,15.485,0,0,0,2.594-8.612A15.625,15.625,0,1,0,15.625,31.25a15.486,15.486,0,0,0,8.612-2.594l2.882,2.882h0l7.544,7.544a3.125,3.125,0,1,0,4.419-4.419ZM23.87,27.01h0a14.077,14.077,0,1,1,3.14-3.14A14.131,14.131,0,0,1,23.87,27.01Zm1.639.708a15.678,15.678,0,0,0,2.209-2.209l2.216,2.216a18.964,18.964,0,0,1-2.209,2.209ZM37.98,37.98a1.561,1.561,0,0,1-2.209,0l-6.937-6.937a20.53,20.53,0,0,0,2.209-2.209l6.937,6.937a1.561,1.561,0,0,1,0,2.209Z"/>
    </g>
  </g>
  <g id="Group_31" data-name="Group 31" transform="translate(3.125 3.125)">
    <g id="Group_30" data-name="Group 30">
      <path id="Path_156" data-name="Path 156" class="cls-1" d="M52.5,40A12.5,12.5,0,1,0,65,52.5,12.514,12.514,0,0,0,52.5,40Zm0,23.438A10.938,10.938,0,1,1,63.438,52.5,10.95,10.95,0,0,1,52.5,63.438Z" transform="translate(-40 -40)"/>
    </g>
  </g>
  <g id="Group_33" data-name="Group 33" transform="translate(14.844 6.25)">
    <g id="Group_32" data-name="Group 32">
      <path id="Path_157" data-name="Path 157" class="cls-1" d="M199.536,86.021A9.39,9.39,0,0,0,190.781,80a.781.781,0,1,0,0,1.563,7.866,7.866,0,0,1,7.3,5.019.781.781,0,1,0,1.459-.56Z" transform="translate(-190 -80)"/>
    </g>
  </g>
</svg>
