<svg xmlns="http://www.w3.org/2000/svg" width="39.898" height="39.898" viewBox="0 0 39.898 39.898">
  <defs>
    <style>
      .cls-1 {
        fill: #fff;
      }
    </style>
  </defs>
  <g id="sports" transform="translate(0 0)">
    <g id="Group_21" data-name="Group 21" transform="translate(23.422 14.917)">
      <g id="Group_20" data-name="Group 20">
        <path id="Path_132" data-name="Path 132" class="cls-1" d="M301.906,191.656a.779.779,0,1,0,0,1.1A.78.78,0,0,0,301.906,191.656Z" transform="translate(-300.576 -191.428)"/>
      </g>
    </g>
    <g id="Group_23" data-name="Group 23" transform="translate(0 0)">
      <g id="Group_22" data-name="Group 22" transform="translate(0 0)">
        <path id="Path_133" data-name="Path 133" class="cls-1" d="M38.984,15.24l-1.1-1.1a3.9,3.9,0,0,0,.094-5.6l-.551-.551.551-.551a3.9,3.9,0,1,0-5.509-5.51l-.552.551-.551-.551a3.893,3.893,0,0,0-5.51,0l-.094.094-1.1-1.1A3.117,3.117,0,0,0,20.25,5.322L24.658,9.73,9.729,24.659,5.322,20.252A3.117,3.117,0,1,0,.914,24.66l1.1,1.1-.094.094a3.893,3.893,0,0,0,0,5.51l.551.551-.551.551a3.9,3.9,0,1,0,5.509,5.51l.552-.551.551.551a3.893,3.893,0,0,0,5.51,0l.094-.094,1.1,1.1a3.117,3.117,0,0,0,4.408-4.407l-4.408-4.408L30.168,15.241l4.408,4.408a3.117,3.117,0,1,0,4.408-4.408ZM33.569,3.024a2.337,2.337,0,0,1,3.3,3.306l-.551.551L33.017,3.575Zm-6.613,0a2.335,2.335,0,0,1,3.306,0l6.612,6.612a2.335,2.335,0,0,1,0,3.306l-.094.094L26.862,3.119ZM6.328,36.875a2.337,2.337,0,1,1-3.3-3.306l.551-.551L6.88,36.324Zm6.613,0a2.335,2.335,0,0,1-3.306,0L3.023,30.263a2.335,2.335,0,0,1,0-3.306l.094-.094,9.918,9.918Zm5.6-1.2a1.558,1.558,0,0,1-2.2,2.2L2.016,23.558a1.558,1.558,0,1,1,2.2-2.2Zm-4.408-6.612-3.306-3.306L25.76,10.832l3.306,3.306Zm23.744-10.52a1.556,1.556,0,0,1-2.2,0L21.352,4.22a1.558,1.558,0,0,1,2.2-2.2L37.882,16.342A1.558,1.558,0,0,1,37.881,18.547Z" transform="translate(0 -0.001)"/>
      </g>
    </g>
    <g id="Group_25" data-name="Group 25" transform="translate(14.917 17.121)">
      <g id="Group_24" data-name="Group 24">
        <path id="Path_134" data-name="Path 134" class="cls-1" d="M199.054,219.94a.779.779,0,0,0-1.1,0l-6.3,6.3a.779.779,0,1,0,1.1,1.1l6.3-6.3A.779.779,0,0,0,199.054,219.94Z" transform="translate(-191.422 -219.712)"/>
      </g>
    </g>
  </g>
</svg>
