<svg id="interface" xmlns="http://www.w3.org/2000/svg" width="38.45" height="38.45" viewBox="0 0 38.45 38.45">
  <defs>
    <style>
      .cls-1 {
        fill: #fff;
      }
    </style>
  </defs>
  <path id="Path_142" data-name="Path 142" class="cls-1" d="M121.97,198.338a.751.751,0,1,0-.531-.22A.756.756,0,0,0,121.97,198.338Zm0,0" transform="translate(-112.116 -182.054)"/>
  <path id="Path_143" data-name="Path 143" class="cls-1" d="M258.673,200.884a.752.752,0,1,0,.219.531A.758.758,0,0,0,258.673,200.884Zm0,0" transform="translate(-238.061 -185.595)"/>
  <path id="Path_144" data-name="Path 144" class="cls-1" d="M293.142,167.166a.751.751,0,1,0-.532-.22A.756.756,0,0,0,293.142,167.166Zm0,0" transform="translate(-270.432 -153.223)"/>
  <path id="Path_145" data-name="Path 145" class="cls-1" d="M36.2,18.474H34.1l3.689-3.689a2.253,2.253,0,0,0,0-3.186L34.445,8.253a.751.751,0,0,0-1.062,0A2.253,2.253,0,0,1,30.2,5.067a.751.751,0,0,0,0-1.062L26.852.66a2.252,2.252,0,0,0-3.186,0l-12.4,12.4a.751.751,0,0,0,1.062,1.062l12.4-12.4a.751.751,0,0,1,1.062,0l2.868,2.867a3.757,3.757,0,0,0,5.2,5.2l2.867,2.867a.752.752,0,0,1,0,1.062l-4.751,4.751H28.686l2.467-2.467a.751.751,0,0,0,0-1.062L23.507,7.3a.751.751,0,0,0-1.062,0L11.268,18.474H2.254A2.255,2.255,0,0,0,0,20.727v4.731a.751.751,0,0,0,.751.751,2.253,2.253,0,1,1,0,4.506A.751.751,0,0,0,0,31.466V36.2A2.256,2.256,0,0,0,2.254,38.45H36.2A2.256,2.256,0,0,0,38.451,36.2V31.466a.751.751,0,0,0-.751-.751,2.253,2.253,0,0,1,0-4.506.751.751,0,0,0,.751-.751V20.727A2.255,2.255,0,0,0,36.2,18.474ZM22.975,8.891l6.585,6.585-3,3H23.588l2.2-2.2a.751.751,0,0,0-1.062-1.062l-3.264,3.264H13.393ZM36.949,24.782a3.755,3.755,0,0,0,0,7.359V36.2a.752.752,0,0,1-.751.751H2.254A.752.752,0,0,1,1.5,36.2V32.141a3.755,3.755,0,0,0,0-7.359V20.727a.752.752,0,0,1,.751-.751H36.2a.752.752,0,0,1,.751.751Zm0,0" transform="translate(-0.001 0)"/>
  <path id="Path_146" data-name="Path 146" class="cls-1" d="M197.782,346.278a.751.751,0,1,0-.531.22A.758.758,0,0,0,197.782,346.278Zm0,0" transform="translate(-181.743 -319.087)"/>
  <path id="Path_147" data-name="Path 147" class="cls-1" d="M296.782,346.278a.751.751,0,1,0-.531.22A.758.758,0,0,0,296.782,346.278Zm0,0" transform="translate(-273.308 -319.087)"/>
  <path id="Path_148" data-name="Path 148" class="cls-1" d="M247.282,346.278a.751.751,0,1,0-.531.22A.758.758,0,0,0,247.282,346.278Zm0,0" transform="translate(-227.526 -319.087)"/>
  <path id="Path_149" data-name="Path 149" class="cls-1" d="M147.751,346.5a.751.751,0,1,0-.531-.22A.757.757,0,0,0,147.751,346.5Zm0,0" transform="translate(-135.961 -319.087)"/>
  <path id="Path_150" data-name="Path 150" class="cls-1" d="M346.282,346.278a.751.751,0,1,0-.531.22A.758.758,0,0,0,346.282,346.278Zm0,0" transform="translate(-319.091 -319.087)"/>
  <path id="Path_151" data-name="Path 151" class="cls-1" d="M147.751,394.5H162.62a.751.751,0,0,0,0-1.5H147.751a.751.751,0,0,0,0,1.5Zm0,0" transform="translate(-135.961 -363.483)"/>
  <path id="Path_152" data-name="Path 152" class="cls-1" d="M184.071,441a.751.751,0,1,0,.531.22A.757.757,0,0,0,184.071,441Zm0,0" transform="translate(-169.553 -407.878)"/>
  <path id="Path_153" data-name="Path 153" class="cls-1" d="M117.581,297H94.751a.751.751,0,0,0-.751.751v10.814a.751.751,0,0,0,.751.751h3.128a.751.751,0,0,0,0-1.5H95.5V298.5H116.83v9.312H104.638a.751.751,0,1,0,0,1.5h12.943a.751.751,0,0,0,.751-.751V297.747A.751.751,0,0,0,117.581,297Zm0,0" transform="translate(-86.941 -274.692)"/>
</svg>
