<svg id="tools-and-utensils" xmlns="http://www.w3.org/2000/svg" width="41.487" height="41.254" viewBox="0 0 41.487 41.254">
  <defs>
    <style>
      .cls-1 {
        fill: #fff;
      }
    </style>
  </defs>
  <path id="Path_135" data-name="Path 135" class="cls-1" d="M82.456,22.527l2.438-.154h.013a5.74,5.74,0,0,0,4.278-2.5l1.927-2.827a11.408,11.408,0,0,0,1.829-8.37,2.574,2.574,0,0,0-2.415-2.141,11.405,11.405,0,0,0-8.091,2.82L79.86,11.608a5.74,5.74,0,0,0-1.967,4.547s0,.009,0,.013l.139,2.438a3.432,3.432,0,0,1-.954,2.571L56.955,41.85a2.924,2.924,0,0,0-.783,2.17,3.362,3.362,0,0,0,3.407,3.268q.134,0,.267-.011a2.925,2.925,0,0,0,2.064-1.041L80.017,23.784a3.433,3.433,0,0,1,2.44-1.257ZM79.05,23,60.944,45.452a1.693,1.693,0,0,1-1.2.586,2.124,2.124,0,0,1-2.332-2.068,1.69,1.69,0,0,1,.435-1.256L77.971,22.043a4.68,4.68,0,0,0,1.3-3.508L79.136,16.1a4.5,4.5,0,0,1,1.542-3.559l2.576-2.252a10.175,10.175,0,0,1,7.213-2.514,1.331,1.331,0,0,1,1.248,1.107,10.17,10.17,0,0,1-1.631,7.462l-1.927,2.827a4.5,4.5,0,0,1-3.349,1.958l-2.431.154A4.682,4.682,0,0,0,79.05,23Zm0,0" transform="translate(-51.617 -6.035)"/>
  <path id="Path_136" data-name="Path 136" class="cls-1" d="M306.553,299.352,293.06,287.062a.622.622,0,1,0-.837.919l13.489,12.287a1.693,1.693,0,0,1,.513,1.231,2.124,2.124,0,0,1-2.2,2.2,1.691,1.691,0,0,1-1.227-.509l-12.023-13.2a.622.622,0,1,0-.92.837l12.026,13.2a2.924,2.924,0,0,0,2.12.912h.065a3.366,3.366,0,0,0,3.406-3.473,2.927,2.927,0,0,0-.915-2.123Zm0,0" transform="translate(-266.216 -263.693)"/>
  <path id="Path_137" data-name="Path 137" class="cls-1" d="M7.5,16.874A5.759,5.759,0,0,0,11.27,18.4h.013l2.442.008a3.43,3.43,0,0,1,2.509,1.107l1.076,1.181a.622.622,0,1,0,.919-.838l-1.077-1.183a4.68,4.68,0,0,0-3.423-1.512l-2.436-.008a4.519,4.519,0,0,1-2.919-1.168L1.3,7.571a.215.215,0,0,1,.316-.29l6.442,6.443a1.635,1.635,0,0,0,2.31,0l.757-.757h0l1.344-1.344h0l.757-.757a1.635,1.635,0,0,0,0-2.31L6.782,2.112a.215.215,0,0,1,.29-.316l8.414,7.078a4.517,4.517,0,0,1,1.168,2.918l.007,2.436a4.683,4.683,0,0,0,1.513,3.425l1.153,1.05a.622.622,0,1,0,.838-.919l-1.151-1.048a3.433,3.433,0,0,1-1.109-2.511L17.9,11.782s0-.009,0-.013A5.759,5.759,0,0,0,16.375,8a.621.621,0,0,0-.057-.055L7.873.844A1.458,1.458,0,0,0,5.9,2.992l6.442,6.443a.39.39,0,0,1,0,.551l-.317.317-7.18-7.18A.622.622,0,1,0,3.968,4l7.18,7.18-.465.465L3.5,4.467a.622.622,0,0,0-.879.879l7.18,7.18-.317.317a.39.39,0,0,1-.551,0L2.493,6.4A1.458,1.458,0,0,0,.345,8.372l7.1,8.445a.579.579,0,0,0,.054.057Zm0,0" transform="translate(0 -0.499)"/>
</svg>
