<svg id="transportation" xmlns="http://www.w3.org/2000/svg" width="41.906" height="42.122" viewBox="0 0 41.906 42.122">
  <defs>
    <style>
      .cls-1 {
        fill: #fff;
      }
    </style>
  </defs>
  <path id="Path_170" data-name="Path 170" class="cls-1" d="M43.641,17.873a4.136,4.136,0,0,0-2.987-1.962q.048-.668.048-1.355a14.5,14.5,0,0,0-1.108-5.562.617.617,0,1,0-1.14.471,13.276,13.276,0,0,1,1.014,5.091c0,.472-.137,2.258-.2,2.68a19.131,19.131,0,0,1-3.337,7.584,50.894,50.894,0,0,1-3.605,4.173c-.5.527-.537.526-1.011.526H29.894a35.528,35.528,0,0,0,3.158-14.963,26.9,26.9,0,0,0-1.757-10,10.977,10.977,0,0,0-1.719-2.944h0A13.082,13.082,0,0,1,37,6.824a.617.617,0,0,0,1.011-.708A14.051,14.051,0,0,0,26.679,0h-.085a13.412,13.412,0,0,0-5.389,1.127,14.282,14.282,0,0,0-4.6,3.238q-.483.5-.914,1.051a3.6,3.6,0,0,0-.868-.114A4.117,4.117,0,0,0,7.179,7.42c0,.043,0,.086,0,.129A2.617,2.617,0,0,0,8.3,12.533h4.333a14.1,14.1,0,0,0-.146,2.023,17.133,17.133,0,0,0,2.209,8.578,33.945,33.945,0,0,0,5.277,6.709c.153.16.29.292.415.4,0,.013,0,.026.008.039l1.3,5.3v4.106a2.435,2.435,0,0,0,2.432,2.434h4.932a2.436,2.436,0,0,0,2.434-2.434V35.582l1.3-5.3c0-.013.006-.026.009-.039.126-.109.262-.242.413-.4a43.522,43.522,0,0,0,4.025-4.737h6.368a3.616,3.616,0,0,0,.03-7.232ZM8.3,11.3a1.382,1.382,0,0,1-.316-2.728.617.617,0,0,0,.468-.7,2.946,2.946,0,0,1-.037-.455A2.883,2.883,0,0,1,13.907,6.2a.622.622,0,0,0,.393.332,2.921,2.921,0,0,0,.618.011,2.38,2.38,0,0,1-.123,4.758ZM20.864,28.993c-3.909-4.118-7.146-8.047-7.146-14.437a13.264,13.264,0,0,1,.155-2.023h.921a3.614,3.614,0,0,0,2.06-6.582A13.062,13.062,0,0,1,23.61,1.612h0a10.971,10.971,0,0,0-1.719,2.944,26.885,26.885,0,0,0-1.759,10,.617.617,0,1,0,1.234,0,26.014,26.014,0,0,1,1.665-9.528c1-2.41,2.3-3.793,3.562-3.793a2.669,2.669,0,0,1,1.881.993,9.328,9.328,0,0,1,1.68,2.8,26.029,26.029,0,0,1,1.663,9.528A34.59,34.59,0,0,1,28.7,29.182c-.069.167-.118.271-.151.336H24.64c-.033-.065-.081-.169-.15-.336A35.5,35.5,0,0,1,21.48,17.61a.617.617,0,0,0-1.231.095,36.372,36.372,0,0,0,3.045,11.815H21.875c-.471,0-.508,0-1.01-.526Zm.915,1.759h4.2v4.139H22.8Zm8.479,8.936a1.2,1.2,0,0,1-1.2,1.2H24.127a1.2,1.2,0,0,1-1.2-1.2V36.126h7.329Zm.133-4.8H27.211V30.753h4.2ZM43.611,23.871H38.058q.225-.364.434-.737a16.96,16.96,0,0,0,2.034-6,2.9,2.9,0,0,1,2.2,1.631.618.618,0,0,0,.625.352,2.464,2.464,0,0,1,.262-.015,2.382,2.382,0,0,1,0,4.764Z" transform="translate(-5.32 0)"/>
  <path id="Path_171" data-name="Path 171" class="cls-1" d="M12.536,397.245c0-.044,0-.087,0-.13A4.116,4.116,0,0,0,4.894,395a3.616,3.616,0,0,0,.032,7.232h6.5a2.617,2.617,0,0,0,1.114-4.986ZM11.422,401h-6.5a2.382,2.382,0,0,1,0-4.764,2.459,2.459,0,0,1,.26.015.617.617,0,0,0,.625-.35,2.882,2.882,0,0,1,5.494,1.218,2.969,2.969,0,0,1-.037.457.618.618,0,0,0,.471.7A1.382,1.382,0,0,1,11.422,401Z" transform="translate(-1.31 -360.668)"/>
</svg>
