<svg id="travelling" xmlns="http://www.w3.org/2000/svg" width="26.093" height="43.271" viewBox="0 0 26.093 43.271">
  <defs>
    <style>
      .cls-1 {
        fill: #fff;
      }
    </style>
  </defs>
  <path id="Path_138" data-name="Path 138" class="cls-1" d="M124.378,10.949h-3.066V5.47a.929.929,0,0,0,.277-.662V2.935A2.938,2.938,0,0,0,118.655,0H110.7a2.938,2.938,0,0,0-2.935,2.935V4.808a.929.929,0,0,0,.277.662v5.479h-3.066a3.349,3.349,0,0,0-3.345,3.345V37.467a3.351,3.351,0,0,0,2.21,3.147v.822a1.838,1.838,0,0,0,1.836,1.836h.761a1.838,1.838,0,0,0,1.836-1.836v-.623h12.807v.623a1.838,1.838,0,0,0,1.836,1.836h.761a1.838,1.838,0,0,0,1.836-1.836v-.822a3.351,3.351,0,0,0,2.21-3.147V14.294a3.349,3.349,0,0,0-3.345-3.345Zm-5.211,0V5.74h.877v5.209ZM111.455,5.47a.929.929,0,0,0,.277-.662V3.967h5.891v.841a.929.929,0,0,0,.277.662v5.479h-6.445V5.47Zm-2.422-2.535A1.669,1.669,0,0,1,110.7,1.268h7.955a1.669,1.669,0,0,1,1.667,1.667V4.472H118.89V3.649a.951.951,0,0,0-.95-.95h-6.526a.951.951,0,0,0-.95.95v.823h-1.431V2.935Zm.277,2.805h.877v5.209h-.877Zm-2.3,35.7a.569.569,0,0,1-.568.568h-.761a.569.569,0,0,1-.568-.568v-.623h1.9ZM123.678,42h-.761a.569.569,0,0,1-.568-.568v-.623h1.9v.623A.569.569,0,0,1,123.678,42Zm2.778-4.537a2.08,2.08,0,0,1-2.078,2.078h-19.4a2.08,2.08,0,0,1-2.077-2.078V14.294a2.08,2.08,0,0,1,2.077-2.077h19.4a2.08,2.08,0,0,1,2.078,2.077Z" transform="translate(-101.631)"/>
  <path id="Path_139" data-name="Path 139" class="cls-1" d="M149.049,178.609a2.152,2.152,0,0,0-2.15,2.15V193.08a.634.634,0,1,0,1.268,0V180.759a.882.882,0,0,1,1.764,0v18.026a.882.882,0,1,1-1.764,0v-2.74a.634.634,0,0,0-1.268,0v2.74a2.15,2.15,0,1,0,4.3,0V180.759A2.152,2.152,0,0,0,149.049,178.609Z" transform="translate(-143.073 -163.514)"/>
  <path id="Path_140" data-name="Path 140" class="cls-1" d="M232.714,178.609a2.152,2.152,0,0,0-2.15,2.15v18.026a2.15,2.15,0,0,0,4.3,0V180.759A2.152,2.152,0,0,0,232.714,178.609Zm.882,20.176a.882.882,0,0,1-1.764,0V180.759a.882.882,0,0,1,1.764,0Z" transform="translate(-219.667 -163.514)"/>
  <path id="Path_141" data-name="Path 141" class="cls-1" d="M316.379,178.609a2.152,2.152,0,0,0-2.15,2.15v2.5a.634.634,0,0,0,1.268,0v-2.5a.882.882,0,1,1,1.764,0v18.026a.882.882,0,1,1-1.764,0V186.228a.634.634,0,0,0-1.268,0v12.557a2.15,2.15,0,1,0,4.3,0V180.759A2.152,2.152,0,0,0,316.379,178.609Z" transform="translate(-296.262 -163.514)"/>
</svg>
